<svg width="195" height="35" viewBox="0 0 195 35" fill="none" xmlns="http://www.w3.org/2000/svg">
<path d="M52.2404 25.8062C54.5883 25.8062 56.9566 23.9687 56.9566 21.2737C56.9566 15.7612 50.7091 17.5987 50.7091 15.1895C50.7091 14.577 51.1175 14.1075 51.8729 14.1075C52.6283 14.1075 53.0775 14.475 53.302 15.1895H56.7729C56.2216 12.2904 54.3433 10.9429 51.8729 10.9429C49.5658 10.9429 47.32 12.5966 47.32 15.2712C47.32 20.7429 53.5675 18.8645 53.5675 21.3554C53.5675 22.0291 53.0979 22.6416 52.2404 22.6416C51.3829 22.6416 50.7704 22.1925 50.5458 21.3554H47.075C47.5854 24.2137 49.5045 25.8062 52.2404 25.8062Z" fill="#0F1322"/>
<path d="M63.8791 25.8062C66.2066 25.8062 68.4933 24.4179 69.1466 21.5187H65.7575C65.3696 22.4783 64.7571 22.907 63.8791 22.907C62.5521 22.907 61.715 21.927 61.715 20.212C61.715 18.497 62.5521 17.517 63.8791 17.517C64.6754 17.517 65.3491 17.8641 65.7575 18.7012H69.1466C68.4321 15.945 66.1454 14.6179 63.8791 14.6179C61.1637 14.6179 58.4891 16.537 58.4891 20.212C58.4891 23.887 61.1637 25.8062 63.8791 25.8062Z" fill="#0F1322"/>
<path d="M70.8803 25.5204H73.9836V19.5995C73.9836 18.2725 74.8411 17.3129 77.1891 17.8029V14.6179C75.9232 14.6179 74.7595 15.1487 73.9836 16.1695V14.9037H70.8803V25.5204Z" fill="#0F1322"/>
<path d="M82.6132 25.8062C83.879 25.8062 85.0428 25.2754 85.8186 24.2545V25.5204H88.9219V14.9037H85.8186V20.8245C85.8186 22.1516 84.9611 22.907 83.7157 22.907C82.6132 22.907 81.919 22.1516 81.919 20.8245V14.9037H78.8157V21.437C78.8157 24.2137 80.2857 25.8062 82.6132 25.8062Z" fill="#0F1322"/>
<path d="M104.566 19.5995V25.5204H107.669V18.987C107.669 16.2104 106.322 14.6179 104.076 14.6179C102.606 14.6179 101.32 15.2304 100.523 16.3941C99.9313 15.2508 98.8901 14.6179 97.4813 14.6179C96.338 14.6179 95.2355 15.1487 94.4801 16.1491V14.9037H91.3767V25.5204H94.4801V19.5995C94.4801 18.2725 95.3376 17.517 96.3788 17.517C97.3996 17.517 97.9713 18.2725 97.9713 19.5995V25.5204H101.075V19.5995C101.075 18.2725 101.932 17.517 102.973 17.517C103.994 17.517 104.566 18.2725 104.566 19.5995Z" fill="#0F1322"/>
<path d="M110.119 25.5204H113.385V20.7429H114.569C117.367 20.7429 119.51 18.8237 119.51 15.9858C119.51 13.1479 117.367 11.2287 114.569 11.2287H110.119V25.5204ZM113.385 17.6804V14.2912H114.569C115.611 14.2912 116.121 15.1079 116.121 15.9858C116.121 16.8637 115.611 17.6804 114.569 17.6804H113.385Z" fill="#0F1322"/>
<path d="M126.034 25.8062C128.912 25.8062 131.73 23.887 131.73 20.212C131.73 16.537 128.912 14.6179 126.034 14.6179C123.155 14.6179 120.337 16.537 120.337 20.212C120.337 23.887 123.155 25.8062 126.034 25.8062ZM123.563 20.212C123.563 18.497 124.543 17.517 126.034 17.517C127.524 17.517 128.504 18.497 128.504 20.212C128.504 21.927 127.524 22.907 126.034 22.907C124.543 22.907 123.563 21.927 123.563 20.212Z" fill="#0F1322"/>
<path d="M133.765 25.5204H136.869V11.2287H133.765V25.5204ZM136.869 19.8037L139.441 25.5204H142.871L140.135 19.5383L142.565 14.9037H139.421L136.869 19.8037Z" fill="#0F1322"/>
<path d="M149.057 25.8062C151.099 25.8062 153.283 24.7241 154.202 22.4579H150.609C150.302 22.8458 149.833 23.0295 149.057 23.0295C147.995 23.0295 146.995 22.4783 146.668 21.192H154.365V20.212C154.365 16.537 151.65 14.6179 148.955 14.6179C146.26 14.6179 143.585 16.537 143.585 20.212C143.585 23.887 146.362 25.8062 149.057 25.8062ZM146.709 19.0279C147.036 17.7212 147.914 17.1087 148.955 17.1087C149.833 17.1087 150.854 17.5783 151.119 19.0279H146.709Z" fill="#0F1322"/>
<path d="M156.415 25.5204H159.518V19.5995C159.518 18.2725 160.376 17.3129 162.724 17.8029V14.6179C161.458 14.6179 160.294 15.1487 159.518 16.1695V14.9037H156.415V25.5204Z" fill="#0F1322"/>
<path d="M164.35 25.5204H167.617V20.7429H168.801C171.598 20.7429 173.742 18.8237 173.742 15.9858C173.742 13.1479 171.598 11.2287 168.801 11.2287H164.35V25.5204ZM167.617 17.6804V14.2912H168.801C169.842 14.2912 170.353 15.1079 170.353 15.9858C170.353 16.8637 169.842 17.6804 168.801 17.6804H167.617Z" fill="#0F1322"/>
<path d="M175.276 25.5204H178.38V19.5995C178.38 18.2725 179.237 17.3129 181.585 17.8029V14.6179C180.319 14.6179 179.156 15.1487 178.38 16.1695V14.9037H175.276V25.5204Z" fill="#0F1322"/>
<path d="M188.4 25.8062C191.279 25.8062 194.096 23.887 194.096 20.212C194.096 16.537 191.279 14.6179 188.4 14.6179C185.521 14.6179 182.704 16.537 182.704 20.212C182.704 23.887 185.521 25.8062 188.4 25.8062ZM185.93 20.212C185.93 18.497 186.91 17.517 188.4 17.517C189.891 17.517 190.87 18.497 190.87 20.212C190.87 21.927 189.891 22.907 188.4 22.907C186.91 22.907 185.93 21.927 185.93 20.212Z" fill="#0F1322"/>
<path d="M8.46774 7.45161C8.46774 6.45394 9.27652 5.64516 10.2742 5.64516H15.129C16.1267 5.64516 16.9355 6.45394 16.9355 7.45161V15.129C16.9355 16.1267 16.1267 16.9355 15.129 16.9355H10.2742C9.27652 16.9355 8.46774 16.1267 8.46774 15.129V7.45161Z" fill="url(#paint0_radial)"/>
<path d="M27.5484 8.46774C28.5461 8.46774 29.3548 9.27652 29.3548 10.2742V15.129C29.3548 16.1267 28.5461 16.9355 27.5484 16.9355H19.871C18.8733 16.9355 18.0645 16.1267 18.0645 15.129V10.2742C18.0645 9.27652 18.8733 8.46774 19.871 8.46774L27.5484 8.46774Z" fill="url(#paint1_radial)"/>
<path d="M15.129 18.0645C16.1267 18.0645 16.9355 18.8733 16.9355 19.871V24.7258C16.9355 25.7235 16.1267 26.5323 15.129 26.5323H7.45161C6.45394 26.5323 5.64516 25.7235 5.64516 24.7258V19.871C5.64516 18.8733 6.45394 18.0645 7.45161 18.0645H15.129Z" fill="url(#paint2_radial)"/>
<path d="M26.5323 27.5484C26.5323 28.5461 25.7235 29.3548 24.7258 29.3548H19.871C18.8733 29.3548 18.0645 28.5461 18.0645 27.5484L18.0645 19.871C18.0645 18.8733 18.8733 18.0645 19.871 18.0645H24.7258C25.7235 18.0645 26.5323 18.8733 26.5323 19.871L26.5323 27.5484Z" fill="url(#paint3_radial)"/>
<path d="M35 12.7581C35 14.0052 33.989 15.0161 32.7419 15.0161C31.4948 15.0161 30.4839 14.0052 30.4839 12.7581C30.4839 11.511 31.4948 10.5 32.7419 10.5C33.989 10.5 35 11.511 35 12.7581Z" fill="url(#paint4_radial)"/>
<path d="M15.0161 2.25806C15.0161 3.50516 14.0052 4.51613 12.7581 4.51613C11.511 4.51613 10.5 3.50516 10.5 2.25806C10.5 1.01097 11.511 0 12.7581 0C14.0052 0 15.0161 1.01097 15.0161 2.25806Z" fill="url(#paint5_radial)"/>
<path d="M24.6129 32.7419C24.6129 33.989 23.6019 35 22.3548 35C21.1077 35 20.0968 33.989 20.0968 32.7419C20.0968 31.4948 21.1077 30.4839 22.3548 30.4839C23.6019 30.4839 24.6129 31.4948 24.6129 32.7419Z" fill="url(#paint6_radial)"/>
<path d="M4.51613 22.3548C4.51613 23.6019 3.50516 24.6129 2.25806 24.6129C1.01097 24.6129 0 23.6019 0 22.3548C0 21.1077 1.01097 20.0968 2.25806 20.0968C3.50516 20.0968 4.51613 21.1077 4.51613 22.3548Z" fill="url(#paint7_radial)"/>
<defs>
<radialGradient id="paint0_radial" cx="0" cy="0" r="1" gradientUnits="userSpaceOnUse" gradientTransform="translate(17.5 17.5) rotate(90) scale(28.1694)">
<stop stop-color="#DE4116"/>
<stop offset="1" stop-color="#F56139"/>
</radialGradient>
<radialGradient id="paint1_radial" cx="0" cy="0" r="1" gradientUnits="userSpaceOnUse" gradientTransform="translate(17.5 17.5) rotate(90) scale(28.1694)">
<stop stop-color="#DE4116"/>
<stop offset="1" stop-color="#F56139"/>
</radialGradient>
<radialGradient id="paint2_radial" cx="0" cy="0" r="1" gradientUnits="userSpaceOnUse" gradientTransform="translate(17.5 17.5) rotate(90) scale(28.1694)">
<stop stop-color="#DE4116"/>
<stop offset="1" stop-color="#F56139"/>
</radialGradient>
<radialGradient id="paint3_radial" cx="0" cy="0" r="1" gradientUnits="userSpaceOnUse" gradientTransform="translate(17.5 17.5) rotate(90) scale(28.1694)">
<stop stop-color="#DE4116"/>
<stop offset="1" stop-color="#F56139"/>
</radialGradient>
<radialGradient id="paint4_radial" cx="0" cy="0" r="1" gradientUnits="userSpaceOnUse" gradientTransform="translate(17.5 17.5) rotate(90) scale(28.1694)">
<stop stop-color="#DE4116"/>
<stop offset="1" stop-color="#F56139"/>
</radialGradient>
<radialGradient id="paint5_radial" cx="0" cy="0" r="1" gradientUnits="userSpaceOnUse" gradientTransform="translate(17.5 17.5) rotate(90) scale(28.1694)">
<stop stop-color="#DE4116"/>
<stop offset="1" stop-color="#F56139"/>
</radialGradient>
<radialGradient id="paint6_radial" cx="0" cy="0" r="1" gradientUnits="userSpaceOnUse" gradientTransform="translate(17.5 17.5) rotate(90) scale(28.1694)">
<stop stop-color="#DE4116"/>
<stop offset="1" stop-color="#F56139"/>
</radialGradient>
<radialGradient id="paint7_radial" cx="0" cy="0" r="1" gradientUnits="userSpaceOnUse" gradientTransform="translate(17.5 17.5) rotate(90) scale(28.1694)">
<stop stop-color="#DE4116"/>
<stop offset="1" stop-color="#F56139"/>
</radialGradient>
</defs>
</svg>
