<svg width="24" height="25" viewBox="0 0 24 25" fill="none" xmlns="http://www.w3.org/2000/svg">
  <path d="M17 20.5H22V18.5C22 17.8765 21.8057 17.2686 21.4441 16.7606C21.0826 16.2527 20.5718 15.87 19.9827 15.6658C19.3937 15.4615 18.7556 15.4459 18.1573 15.621C17.5589 15.7962 17.03 16.1534 16.644 16.643M17 20.5L16.644 16.643M17 20.5H7M17 20.5V18.5C17 17.844 16.874 17.217 16.644 16.643M16.644 16.643C16.2726 15.715 15.6318 14.9195 14.804 14.3591C13.9762 13.7988 12.9996 13.4993 12 13.4993C11.0004 13.4993 10.0238 13.7988 9.196 14.3591C8.36825 14.9195 7.72736 15.715 7.356 16.643M7 20.5H2V18.5C2.00005 17.8765 2.19434 17.2686 2.55586 16.7606C2.91739 16.2527 3.42819 15.87 4.01725 15.6658C4.60632 15.4615 5.24438 15.4459 5.84274 15.621C6.4411 15.7962 6.97003 16.1534 7.356 16.643M7 20.5L7.356 16.643M7 20.5V18.5C7 17.844 7.126 17.217 7.356 16.643M15 7.5C15 8.29565 14.6839 9.05871 14.1213 9.62132C13.5587 10.1839 12.7956 10.5 12 10.5C11.2044 10.5 10.4413 10.1839 9.87868 9.62132C9.31607 9.05871 9 8.29565 9 7.5C9 6.70435 9.31607 5.94129 9.87868 5.37868C10.4413 4.81607 11.2044 4.5 12 4.5C12.7956 4.5 13.5587 4.81607 14.1213 5.37868C14.6839 5.94129 15 6.70435 15 7.5ZM21 10.5C21 11.0304 20.7893 11.5391 20.4142 11.9142C20.0391 12.2893 19.5304 12.5 19 12.5C18.4696 12.5 17.9609 12.2893 17.5858 11.9142C17.2107 11.5391 17 11.0304 17 10.5C17 9.96957 17.2107 9.46086 17.5858 9.08579C17.9609 8.71071 18.4696 8.5 19 8.5C19.5304 8.5 20.0391 8.71071 20.4142 9.08579C20.7893 9.46086 21 9.96957 21 10.5ZM7 10.5C7 11.0304 6.78929 11.5391 6.41421 11.9142C6.03914 12.2893 5.53043 12.5 5 12.5C4.46957 12.5 3.96086 12.2893 3.58579 11.9142C3.21071 11.5391 3 11.0304 3 10.5C3 9.96957 3.21071 9.46086 3.58579 9.08579C3.96086 8.71071 4.46957 8.5 5 8.5C5.53043 8.5 6.03914 8.71071 6.41421 9.08579C6.78929 9.46086 7 9.96957 7 10.5Z" stroke="white" stroke-width="2" stroke-linecap="round" stroke-linejoin="round"/>
</svg>
