<svg width="15" height="20" viewBox="0 0 15 20" fill="none" xmlns="http://www.w3.org/2000/svg">
<path d="M5.385 19.7879C5.50456 19.8815 5.64392 19.9465 5.79244 19.9781C5.94096 20.0096 6.09472 20.0068 6.242 19.9699L14.242 17.9699C14.4585 17.916 14.6508 17.7913 14.7882 17.6155C14.9255 17.4397 15.0001 17.223 15 16.9999V2.99987C14.9999 2.77681 14.9253 2.56017 14.788 2.38441C14.6506 2.20865 14.4584 2.08385 14.242 2.02987L6.242 0.0298698C6.09466 -0.00628098 5.94105 -0.00853841 5.79271 0.0232672C5.64437 0.0550729 5.50519 0.120113 5.38562 0.213492C5.26606 0.30687 5.16924 0.426154 5.10244 0.562365C5.03565 0.698576 5.00062 0.848164 5 0.99987V1.99987H1C0.734784 1.99987 0.48043 2.10523 0.292893 2.29276C0.105357 2.4803 0 2.73465 0 2.99987V16.9999C0 17.2651 0.105357 17.5194 0.292893 17.707C0.48043 17.8945 0.734784 17.9999 1 17.9999H5V18.9999C5 19.3079 5.142 19.5989 5.385 19.7879ZM7 2.28087L13 3.78087V16.2189L7 17.7189V2.28087ZM2 15.9999V3.99987H5V15.9999H2Z" fill="#F56139"/>
<path d="M9.242 11.159C9.688 11.047 10 10.647 10 10.188V9.81102C9.99987 9.54581 9.89438 9.29151 9.70675 9.10406C9.51912 8.91662 9.26472 8.81139 8.9995 8.81152C8.73428 8.81166 8.47998 8.91714 8.29254 9.10477C8.1051 9.2924 7.99987 9.54681 8 9.81202V10.189C8.00004 10.3409 8.03469 10.4908 8.10131 10.6273C8.16792 10.7638 8.26477 10.8834 8.38448 10.9769C8.50419 11.0704 8.64363 11.1354 8.79222 11.1669C8.9408 11.1985 9.09462 11.1958 9.242 11.159Z" fill="#F56139"/>
</svg>
