<svg width="16" height="8" viewBox="0 0 16 8" fill="none" xmlns="http://www.w3.org/2000/svg">
<path fill-rule="evenodd" clip-rule="evenodd" d="M3.5 2C2.414 2 1.5 2.914 1.5 4C1.5 5.086 2.414 6 3.5 6C4.025 6 4.622 5.756 5.325 5.273C5.835 4.923 6.35 4.483 6.886 4C6.35 3.517 5.834 3.078 5.326 2.727C4.621 2.244 4.025 2 3.5 2ZM8 2.984C7.41 2.451 6.796 1.918 6.175 1.491C5.378 0.943 4.475 0.5 3.5 0.5C1.586 0.5 0 2.086 0 4C0 5.914 1.586 7.5 3.5 7.5C4.475 7.5 5.378 7.056 6.175 6.509C6.796 6.082 7.41 5.549 8 5.016C8.59 5.549 9.204 6.082 9.825 6.509C10.622 7.056 11.525 7.5 12.5 7.5C14.414 7.5 16 5.914 16 4C16 2.086 14.414 0.5 12.5 0.5C11.525 0.5 10.622 0.943 9.825 1.491C9.204 1.918 8.59 2.451 8 2.984ZM9.114 4C9.65 4.483 10.166 4.922 10.674 5.273C11.378 5.756 11.974 6 12.5 6C13.586 6 14.5 5.086 14.5 4C14.5 2.914 13.586 2 12.5 2C11.975 2 11.378 2.244 10.675 2.727C10.165 3.077 9.65 3.517 9.114 4Z" fill="black"/>
</svg>
