<svg width="22" height="18" viewBox="0 0 22 18" fill="none" xmlns="http://www.w3.org/2000/svg">
<path fill-rule="evenodd" clip-rule="evenodd" d="M22 3.01775V15C22 16.6523 20.6523 18 19 18H3C1.34772 18 0 16.6523 0 15V3C0 1.34772 1.34772 0 3 0H19C20.6443 0 21.987 1.33478 21.9999 2.97618C22.0002 2.99004 22.0003 3.0039 22 3.01775ZM2.10657 2.55397C2.27194 2.22693 2.61203 2 3 2H19C19.388 2 19.7281 2.22697 19.8935 2.55406L11.0001 8.77943L2.10657 2.55397ZM2 4.92068V15C2 15.5477 2.45228 16 3 16H19C19.5477 16 20 15.5477 20 15V4.9208L11.5735 10.8193C11.2292 11.0603 10.7709 11.0603 10.4266 10.8193L2 4.92068Z" fill="white"/>
</svg>
