<svg width="22" height="22" viewBox="0 0 22 22" fill="none" xmlns="http://www.w3.org/2000/svg">
<path d="M9.87489 11C9.87489 11.2984 9.99341 11.5845 10.2044 11.7955C10.4154 12.0065 10.7015 12.125 10.9999 12.125C11.2983 12.125 11.5844 12.0065 11.7954 11.7955C12.0064 11.5845 12.1249 11.2984 12.1249 11C12.1249 10.7016 12.0064 10.4155 11.7954 10.2045C11.5844 9.99353 11.2983 9.875 10.9999 9.875C10.7015 9.875 10.4154 9.99353 10.2044 10.2045C9.99341 10.4155 9.87489 10.7016 9.87489 11ZM14.5624 11C14.5624 11.2984 14.6809 11.5845 14.8919 11.7955C15.1029 12.0065 15.389 12.125 15.6874 12.125C15.9858 12.125 16.2719 12.0065 16.4829 11.7955C16.6939 11.5845 16.8124 11.2984 16.8124 11C16.8124 10.7016 16.6939 10.4155 16.4829 10.2045C16.2719 9.99353 15.9858 9.875 15.6874 9.875C15.389 9.875 15.1029 9.99353 14.8919 10.2045C14.6809 10.4155 14.5624 10.7016 14.5624 11ZM5.18739 11C5.18739 11.2984 5.30592 11.5845 5.51689 11.7955C5.72787 12.0065 6.01402 12.125 6.31239 12.125C6.61076 12.125 6.89691 12.0065 7.10788 11.7955C7.31886 11.5845 7.43739 11.2984 7.43739 11C7.43739 10.7016 7.31886 10.4155 7.10788 10.2045C6.89691 9.99353 6.61076 9.875 6.31239 9.875C6.01402 9.875 5.72787 9.99353 5.51689 10.2045C5.30592 10.4155 5.18739 10.7016 5.18739 11ZM20.6843 6.93125C20.1546 5.67266 19.3952 4.54297 18.4272 3.57266C17.466 2.60796 16.325 1.84114 15.0686 1.31563C13.7796 0.774219 12.4108 0.5 10.9999 0.5H10.953C9.5327 0.507031 8.15692 0.788281 6.86317 1.34141C5.6176 1.87232 4.48723 2.64049 3.53505 3.60312C2.57645 4.57109 1.82411 5.69609 1.3038 6.95C0.764733 8.24844 0.492858 9.62891 0.499889 11.0492C0.507842 12.6769 0.892917 14.2806 1.62489 15.7344V19.2969C1.62489 19.5828 1.73848 19.857 1.94066 20.0592C2.14285 20.2614 2.41708 20.375 2.70301 20.375H6.26786C7.72167 21.107 9.32535 21.492 10.953 21.5H11.0022C12.4061 21.5 13.7679 21.2281 15.0499 20.6961C16.2999 20.1768 17.4367 19.419 18.3968 18.4648C19.3647 17.5063 20.1265 16.3859 20.6585 15.1367C21.2116 13.843 21.4929 12.4672 21.4999 11.0469C21.5069 9.61953 21.2304 8.23438 20.6843 6.93125ZM17.1429 17.1969C15.4999 18.8234 13.3202 19.7188 10.9999 19.7188H10.96C9.54676 19.7117 8.14286 19.3602 6.90301 18.6992L6.70614 18.5938H3.40614V15.2938L3.30067 15.0969C2.63973 13.857 2.28817 12.4531 2.28114 11.0398C2.27176 8.70312 3.16473 6.50937 4.80301 4.85703C6.43895 3.20469 8.62567 2.29062 10.9624 2.28125H11.0022C12.1741 2.28125 13.3108 2.50859 14.3819 2.95859C15.4272 3.39687 16.3647 4.02734 17.171 4.83359C17.9749 5.6375 18.6077 6.57734 19.046 7.62266C19.5007 8.70547 19.728 9.85391 19.7233 11.0398C19.7093 13.3742 18.7929 15.5609 17.1429 17.1969Z" fill="#F56139"/>
</svg>
