<svg width="310" height="311" viewBox="0 0 310 311" fill="none" xmlns="http://www.w3.org/2000/svg">
<path d="M75 66.3584C75 57.5218 82.1634 50.3584 91 50.3584H134C142.837 50.3584 150 57.5218 150 66.3584V134.358C150 143.195 142.837 150.358 134 150.358H91C82.1634 150.358 75 143.195 75 134.358V66.3584Z" fill="url(#paint0_radial)"/>
<path d="M244 75.3584C252.837 75.3584 260 82.5219 260 91.3584V134.358C260 143.195 252.837 150.358 244 150.358H176C167.163 150.358 160 143.195 160 134.358V91.3584C160 82.5218 167.163 75.3584 176 75.3584L244 75.3584Z" fill="url(#paint1_radial)"/>
<path d="M134 160.358C142.837 160.358 150 167.522 150 176.358V219.358C150 228.195 142.837 235.358 134 235.358H66C57.1634 235.358 50 228.195 50 219.358V176.358C50 167.522 57.1634 160.358 66 160.358H134Z" fill="url(#paint2_radial)"/>
<path d="M235 244.358C235 253.195 227.837 260.358 219 260.358H176C167.163 260.358 160 253.195 160 244.358L160 176.358C160 167.522 167.163 160.358 176 160.358H219C227.837 160.358 235 167.522 235 176.358L235 244.358Z" fill="url(#paint3_radial)"/>
<path d="M310 113.358C310 124.404 301.046 133.358 290 133.358C278.954 133.358 270 124.404 270 113.358C270 102.313 278.954 93.3584 290 93.3584C301.046 93.3584 310 102.313 310 113.358Z" fill="url(#paint4_radial)"/>
<path d="M133 20.3584C133 31.4041 124.046 40.3584 113 40.3584C101.954 40.3584 93 31.4041 93 20.3584C93 9.3127 101.954 0.358398 113 0.358398C124.046 0.358398 133 9.3127 133 20.3584Z" fill="url(#paint5_radial)"/>
<path d="M218 290.358C218 301.404 209.046 310.358 198 310.358C186.954 310.358 178 301.404 178 290.358C178 279.313 186.954 270.358 198 270.358C209.046 270.358 218 279.313 218 290.358Z" fill="url(#paint6_radial)"/>
<path d="M40 198.358C40 209.404 31.0457 218.358 20 218.358C8.9543 218.358 0 209.404 0 198.358C0 187.313 8.9543 178.358 20 178.358C31.0457 178.358 40 187.313 40 198.358Z" fill="url(#paint7_radial)"/>
<defs>
<radialGradient id="paint0_radial" cx="0" cy="0" r="1" gradientUnits="userSpaceOnUse" gradientTransform="translate(155 155.358) rotate(90) scale(249.5)">
<stop stop-color="#DE4116"/>
<stop offset="1" stop-color="#F56139"/>
</radialGradient>
<radialGradient id="paint1_radial" cx="0" cy="0" r="1" gradientUnits="userSpaceOnUse" gradientTransform="translate(155 155.358) rotate(90) scale(249.5)">
<stop stop-color="#DE4116"/>
<stop offset="1" stop-color="#F56139"/>
</radialGradient>
<radialGradient id="paint2_radial" cx="0" cy="0" r="1" gradientUnits="userSpaceOnUse" gradientTransform="translate(155 155.358) rotate(90) scale(249.5)">
<stop stop-color="#DE4116"/>
<stop offset="1" stop-color="#F56139"/>
</radialGradient>
<radialGradient id="paint3_radial" cx="0" cy="0" r="1" gradientUnits="userSpaceOnUse" gradientTransform="translate(155 155.358) rotate(90) scale(249.5)">
<stop stop-color="#DE4116"/>
<stop offset="1" stop-color="#F56139"/>
</radialGradient>
<radialGradient id="paint4_radial" cx="0" cy="0" r="1" gradientUnits="userSpaceOnUse" gradientTransform="translate(155 155.358) rotate(90) scale(249.5)">
<stop stop-color="#DE4116"/>
<stop offset="1" stop-color="#F56139"/>
</radialGradient>
<radialGradient id="paint5_radial" cx="0" cy="0" r="1" gradientUnits="userSpaceOnUse" gradientTransform="translate(155 155.358) rotate(90) scale(249.5)">
<stop stop-color="#DE4116"/>
<stop offset="1" stop-color="#F56139"/>
</radialGradient>
<radialGradient id="paint6_radial" cx="0" cy="0" r="1" gradientUnits="userSpaceOnUse" gradientTransform="translate(155 155.358) rotate(90) scale(249.5)">
<stop stop-color="#DE4116"/>
<stop offset="1" stop-color="#F56139"/>
</radialGradient>
<radialGradient id="paint7_radial" cx="0" cy="0" r="1" gradientUnits="userSpaceOnUse" gradientTransform="translate(155 155.358) rotate(90) scale(249.5)">
<stop stop-color="#DE4116"/>
<stop offset="1" stop-color="#F56139"/>
</radialGradient>
</defs>
</svg>
